:version 1.10
:name ASF
:units
  mass 1
  length 1
  angle deg
:documentation
  ASF file generated by Kaydara
:root
  axis xyz
  order  tx ty tz rx ry rz
  position 0 0 0
  orientation 0 0 0
:bonedata
  begin
    id 1
    name RightUpLegDummy
    direction -1 2.30186e-007 8.31532e-007
    length 4.04083
    axis 0 0 0 xyz
  end
  begin
    id 2
    name RightUpLeg
    direction -0.000919234 -0.999985 0.00544864
    length 17.4221
    axis -3.80308 -0.00076134 -0.0523649 xyz
    dof rx ry rz
  end
  begin
    id 3
    name RightLeg
    direction -0.000919271 -0.999984 -0.00555045
    length 17.1239
    axis 4.00314 0.0181274 -0.183583 xyz
    dof rx ry rz
  end
  begin
    id 4
    name RightFoot
    direction -2.57843e-005 -4.04509e-007 1
    length 6.72091
    axis 8.18909e-005 -0.122003 -0.403008 xyz
    dof rx ry rz
  end
  begin
    id 5
    name RightToes
    direction 0.00116825 -0.014069 0.9999
    length 3.85082
    axis 0.000514414 0.540638 -0.356797 xyz
    dof rx ry rz
  end
  begin
    id 6
    name SpineDummy
    direction 0.0168869 0.966876 -0.254689
    length 6.99894
    axis 0 0 0 xyz
  end
  begin
    id 7
    name Spine
    direction -0.0132008 0.999903 0.00446247
    length 11.1999
    axis -0.00148109 0.00725429 0.756411 xyz
    dof rx ry rz
  end
  begin
    id 8
    name Spine1
    direction 0 0 0
    length 0
    axis -0.000934958 0.0245693 1.46543 xyz
    dof rx ry rz
  end
  begin
    id 9
    name HEadDummy
    direction -0.0255732 0.999672 0.00128215
    length 3.43865
    axis -0.000934958 0.0245693 1.46543 xyz
  end
  begin
    id 10
    name HEad
    direction -0.0472656 0.980052 0.19304
    length 5.12695
    axis -0.000934954 0.0245693 1.46543 xyz
    dof rx ry rz
  end
  begin
    id 11
    name LeftShoulder1Dummy
    direction 0.953098 0.301717 -0.023914
    length 3.68488
    axis -0.000934958 0.0245693 1.46543 xyz
  end
  begin
    id 12
    name LeftShoulder1
    direction 0.962466 0.271167 0.0112566
    length 3.13809
    axis -0.000934958 0.0245693 1.46543 xyz
    dof rx ry rz
  end
  begin
    id 13
    name LeftArm
    direction 0.999943 0.00455037 -0.00961766
    length 11.3419
    axis -23.1648 0.685459 1.22814 xyz
    dof rx ry rz
  end
  begin
    id 14
    name LeftForeArm
    direction 0.999332 0.0131969 0.0340885
    length 8.70632
    axis -9.90633 0.618216 0.0826942 xyz
    dof rx ry rz
  end
  begin
    id 15
    name LeftHand
    direction 0.994373 -0.0366703 0.0993905
    length 5.32135
    axis 0.00675269 0.680415 0.445699 xyz
    dof rx ry rz
  end
  begin
    id 16
    name RightShoulderDummy
    direction -0.967298 0.252589 -0.0230903
    length 3.68488
    axis -0.000934958 0.0245693 1.46543 xyz
  end
  begin
    id 17
    name RightShoulder
    direction -0.975062 0.221602 0.0120823
    length 3.13809
    axis 0.216257 0.0246515 1.45863 xyz
    dof rx ry rz
  end
  begin
    id 18
    name RightArm
    direction -0.99886 -0.00851186 -0.0469687
    length 10.3947
    axis -23.196 0.23503 -0.532632 xyz
    dof rx ry rz
  end
  begin
    id 19
    name RightForeArm
    direction -0.99909 0.00114866 0.0426317
    length 8.68355
    axis -9.91764 -0.134943 0.610517 xyz
    dof rx ry rz
  end
  begin
    id 20
    name RightHand
    direction -0.992888 -0.0489538 0.10852
    length 5.28593
    axis -0.00275396 -0.197403 0.246414 xyz
    dof rx ry rz
  end
  begin
    id 21
    name LeftUpLegDummy
    direction 1 -2.30186e-007 -8.31532e-007
    length 4.04083
    axis 0 0 0 xyz
  end
  begin
    id 22
    name LeftUpLeg
    direction -0.000920097 -1 2.79241e-006
    length 17.4221
    axis -3.48782 0.00143434 -0.0532288 xyz
    dof rx ry rz
  end
  begin
    id 23
    name LeftLeg
    direction -0.000920097 -1 2.7912e-006
    length 17.1239
    axis 3.68162 -0.00806512 -0.0529896 xyz
    dof rx ry rz
  end
  begin
    id 24
    name LeftFoot
    direction -2.57845e-005 -3.987e-007 1
    length 6.72091
    axis 3.02372e-005 -0.00147829 -0.214229 xyz
    dof rx ry rz
  end
  begin
    id 25
    name LeftToes
    direction 0.00813577 -0.00488255 0.999955
    length 3.85048
    axis 3.89895e-005 -0.0014783 -0.214229 xyz
    dof rx ry rz
  end
:hierarchy
  begin
    root RightUpLegDummy SpineDummy LeftUpLegDummy
    RightUpLegDummy RightUpLeg
    RightUpLeg RightLeg
    RightLeg RightFoot
    RightFoot RightToes
    SpineDummy Spine
    Spine Spine1
    Spine1 HEadDummy LeftShoulder1Dummy RightShoulderDummy
    HEadDummy HEad
    LeftShoulder1Dummy LeftShoulder1
    LeftShoulder1 LeftArm
    LeftArm LeftForeArm
    LeftForeArm LeftHand
    RightShoulderDummy RightShoulder
    RightShoulder RightArm
    RightArm RightForeArm
    RightForeArm RightHand
    LeftUpLegDummy LeftUpLeg
    LeftUpLeg LeftLeg
    LeftLeg LeftFoot
    LeftFoot LeftToes
  end

:SAMPLES-PER-SECOND 30
:FULLY-SPECIFIED
:DEGREES
42
root  -41.1517 34.6876 4.25655 -136.856 88.1914 -145.8
RightUpLeg  -7.00157 -18.4861 -1.01562
RightLeg  4.82352 -1.09867 -0.018539
RightFoot  5.76396 0.0171631 0.0350405
RightToes  -28.1985 -0.128205 -0.236468
Spine  -2.16133 -0.245538 0.591855
Spine1  -4.397 -0.406924 1.71656
HEad  -67.6847 -7.56293 6.50446
LeftShoulder1  -1.94126e-019 -3.10601e-018 -2.51263e-017
LeftArm  -8.08403 24.3593 -82.1975
LeftForeArm  33.7665 -19.5381 -3.10005
LeftHand  -0.444761 -1.9074 7.31941
RightShoulder  -4.96962e-017 0 -2.36833e-017
RightArm  -29.5488 -24.1325 76.6198
RightForeArm  56.2833 14.2861 1.21489
RightHand  -0.426087 -0.765134 -10.5659
LeftUpLeg  -7.44513 6.20774 5.08654
LeftLeg  5.6407 13.2929 0.449795
LeftFoot  7.50358 -0.11231 1.87413
LeftToes  -28.7875 2.40056e-006 -7.68412e-008
43
root  -41.1699 34.6932 4.25573 -136.973 88.1889 -145.921
RightUpLeg  -6.98086 -18.4562 -1.00827
RightLeg  4.71217 -1.13184 -0.014112
RightFoot  5.83842 0.0171442 0.0355401
RightToes  -28.1909 -0.12836 -0.236653
Spine  -2.13936 -0.217757 0.566865
Spine1  -4.35323 -0.345926 1.66877
HEad  -67.8627 -7.46667 6.58112
LeftShoulder1  -1.94126e-019 -3.10601e-018 -2.51263e-017
LeftArm  -7.93135 24.3132 -82.287
LeftForeArm  33.6445 -19.6366 -3.10429
LeftHand  -0.445928 -1.93533 7.23896
RightShoulder  -4.96962e-017 0 -2.36833e-017
RightArm  -29.2005 -23.9107 76.6129
RightForeArm  56.1305 14.4197 1.19913
RightHand  -0.425953 -0.768291 -10.5626
LeftUpLeg  -7.41932 6.21652 5.08017
LeftLeg  5.51846 13.2777 0.421202
LeftFoot  7.56804 -0.113291 1.88891
LeftToes  -28.824 2.40056e-006 -7.68412e-008
44
root  -41.1881 34.6992 4.25605 -137.113 88.1837 -146.058
RightUpLeg  -6.9578 -18.4899 -0.997463
RightLeg  4.60225 -1.10953 -0.0167768
RightFoot  5.92462 0.0171342 0.0359318
RightToes  -28.2143 -0.128502 -0.236826
Spine  -2.13598 -0.181695 0.546711
Spine1  -4.34612 -0.270069 1.63151
HEad  -67.994 -7.50736 6.40502
LeftShoulder1  -1.94126e-019 -3.10601e-018 -2.51263e-017
LeftArm  -7.83997 24.2957 -82.3904
LeftForeArm  33.6903 -19.5414 -3.08393
LeftHand  -0.445376 -1.97806 7.29106
RightShoulder  -4.96962e-017 0 -2.36833e-017
RightArm  -28.9746 -23.7695 76.6003
RightForeArm  56.0699 14.5357 1.18462
RightHand  -0.425507 -0.714874 -10.575
LeftUpLeg  -7.39259 6.1521 5.07653
LeftLeg  5.40242 13.3245 0.39591
LeftFoot  7.64593 -0.11506 1.91549
LeftToes  -28.8048 2.40056e-006 -7.68412e-008
45
root  -41.2073 34.7043 4.25868 -137.171 88.1837 -146.121
RightUpLeg  -6.95239 -18.4911 -0.982851
RightLeg  4.51777 -1.11247 -0.0151932
RightFoot  5.98599 0.0171358 0.0361775
RightToes  -28.2024 -0.12863 -0.236987
Spine  -2.10396 -0.16422 0.515188
Spine1  -4.28226 -0.231906 1.57112
HEad  -68.2932 -7.45382 6.4939
LeftShoulder1  -1.94126e-019 -3.10601e-018 -2.51263e-017
LeftArm  -7.79109 24.2446 -82.4081
LeftForeArm  33.6202 -19.4537 -3.0708
LeftHand  -0.446557 -1.95475 7.25892
RightShoulder  -4.96962e-017 0 -2.36833e-017
RightArm  -28.6428 -23.5811 76.642
RightForeArm  55.7807 14.6789 1.17084
RightHand  -0.425243 -0.765797 -10.571
LeftUpLeg  -7.38419 6.15465 5.07361
LeftLeg  5.30731 13.3313 0.374174
LeftFoot  7.72938 -0.116566 1.9375
LeftToes  -28.825 2.40056e-006 -7.68412e-008
46
root  -41.2249 34.7081 4.26221 -136.907 88.2002 -145.848
RightUpLeg  -6.94215 -18.493 -0.973613
RightLeg  4.44518 -1.08902 -0.0141474
RightFoot  6.03451 0.0171519 0.0362389
RightToes  -28.1715 -0.128744 -0.237135
Spine  -2.11524 -0.12715 0.497541
Spine1  -4.30442 -0.156293 1.53967
HEad  -68.4773 -7.29137 6.50471
LeftShoulder1  -1.94126e-019 -3.10601e-018 -2.51263e-017
LeftArm  -7.78003 24.2954 -82.453
LeftForeArm  33.6353 -19.1739 -3.02626
LeftHand  -0.447767 -1.9628 7.25972
RightShoulder  -4.96962e-017 0 -2.36833e-017
RightArm  -28.3779 -23.5633 76.6268
RightForeArm  55.5781 14.813 1.15758
RightHand  -0.424842 -0.741757 -10.5789
LeftUpLeg  -7.3632 6.18041 5.07439
LeftLeg  5.22872 13.3196 0.355743
LeftFoot  7.77978 -0.117421 1.94891
LeftToes  -28.8124 2.40056e-006 -7.68412e-008
47
root  -41.2406 34.7106 4.26816 -136.858 88.2024 -145.789
RightUpLeg  -6.93762 -18.5085 -0.958614
RightLeg  4.39886 -1.07444 -0.0124266
RightFoot  6.0748 0.0171852 0.0360776
RightToes  -28.1748 -0.128843 -0.23727
Spine  -2.10766 -0.11093 0.479187
Spine1  -4.28917 -0.123093 1.50636
HEad  -68.4799 -7.42349 6.38162
LeftShoulder1  -1.94126e-019 -3.10601e-018 -2.51263e-017
LeftArm  -7.88362 24.3262 -82.4524
LeftForeArm  33.6929 -18.86 -2.98021
LeftHand  -0.449733 -1.96033 7.29304
RightShoulder  -4.96962e-017 0 -2.36833e-017
RightArm  -28.2188 -23.5231 76.6489
RightForeArm  55.4499 14.9171 1.14736
RightHand  -0.425728 -0.748348 -10.5429
LeftUpLeg  -7.35143 6.16381 5.08273
LeftLeg  5.17606 13.3333 0.343959
LeftFoot  7.81839 -0.118335 1.96081
LeftToes  -28.8265 2.40056e-006 -7.68412e-008
